<?xml version="1.0" encoding="UTF-8" standalone="no"?>
<svg
   height="16"
   width="16"
   version="1.1"
   id="svg6"
   xml:space="preserve"
   sodipodi:docname="adw-tab-overview-symbolic.svg"
   inkscape:version="1.3 (0e150ed6c4, 2023-07-21)"
   xmlns:inkscape="http://www.inkscape.org/namespaces/inkscape"
   xmlns:sodipodi="http://sodipodi.sourceforge.net/DTD/sodipodi-0.dtd"
   xmlns="http://www.w3.org/2000/svg"
   xmlns:svg="http://www.w3.org/2000/svg"><sodipodi:namedview
     id="namedview1"
     pagecolor="#ffffff"
     bordercolor="#666666"
     borderopacity="1.0"
     inkscape:showpageshadow="2"
     inkscape:pageopacity="0.0"
     inkscape:pagecheckerboard="0"
     inkscape:deskcolor="#d1d1d1"
     inkscape:zoom="69.4375"
     inkscape:cx="7.9927993"
     inkscape:cy="8"
     inkscape:window-width="2560"
     inkscape:window-height="1379"
     inkscape:window-x="0"
     inkscape:window-y="30"
     inkscape:window-maximized="1"
     inkscape:current-layer="svg6" /><defs
     id="defs10" /><path
     id="rect322"
     style="fill:#555761;stroke:none;stroke-width:1;stroke-linecap:round;-inkscape-stroke:none;stop-color:#000000"
     d="m 14,16 c 1.107998,0 2,-0.892002 2,-2 V 6 C 16,4.892002 15.107998,4 14,4 H 7 C 5.892002,4 5,4.892002 5,6 v 8 c 0,1.107998 0.892002,2 2,2 z m 0,-1 H 7 C 6.4460012,15 6,14.553998 6,14 V 6 C 6,5.446002 6.4460012,5 7,5 h 7 c 0.553998,0 1,0.446002 1,1 v 8 c 0,0.553998 -0.446002,1 -1,1 z M 4,12 V 11 H 2 C 1.446003,11 1,10.553996 1,10 V 2 C 1,1.446003 1.446003,1 2,1 h 7 c 0.5539972,0 1,0.446003 1,1 v 1 h 1 V 2 C 11,0.892004 10.107996,0 9,0 H 2 C 0.892004,0 0,0.892004 0,2 v 8 c 0,1.107996 0.892004,2 2,2 z" /></svg>
