<?xml version="1.0" encoding="UTF-8" standalone="no"?>
<svg
   height="16"
   width="16"
   version="1.1"
   id="svg1"
   xmlns="http://www.w3.org/2000/svg"
   xmlns:svg="http://www.w3.org/2000/svg">
  <defs
     id="defs1" />
  <path
     id="path2"
     style="fill:#555761;marker:none"
     d="m 12.357422,3.5019531 c -0.21468,0.00545 -0.430175,0.067726 -0.619141,0.1933594 -4e-6,6.5e-4 -4e-6,0.0013 0,0.00195 -0.04777,0.031929 -0.09069,0.068697 -0.132812,0.1074219 -0.01789,0.01 -0.03379,0.023244 -0.04687,0.039066 L 6.75,9.7109375 4.46875,7.2734375 C 4.0854774,6.8670725 3.446956,6.7983566 2.9765625,7.109375 2.957062,7.1220326 2.9404264,7.1386682 2.9277345,7.158203 2.4724758,7.5042288 2.3642861,8.1379883 2.7148438,8.5917969 l 3.359375,4.5468751 c 0.00416,0.0062 0.00873,0.01203 0.013672,0.01758 0.3858176,0.394422 1.0181554,0.455471 1.4824219,0.148438 0.1161429,-0.07733 0.2156048,-0.17334 0.2929687,-0.285157 L 13.333984,5.1308594 c 6.67e-4,4e-6 0.0013,4e-6 0.002,0 0.24609,-0.3563778 0.2423,-0.8362148 -0.0332,-1.1933594 C 13.119808,3.7013334 12.851638,3.5584293 12.570362,3.515625 12.500042,3.504923 12.429032,3.500138 12.357472,3.501953 Z" />
</svg>
