<?xml version="1.0" encoding="UTF-8" standalone="no"?>
<svg
   version="1.1"
   width="48"
   height="48"
   id="svg6649"
   xml:space="preserve"
   xmlns:xlink="http://www.w3.org/1999/xlink"
   xmlns="http://www.w3.org/2000/svg"
   xmlns:svg="http://www.w3.org/2000/svg"
   xmlns:rdf="http://www.w3.org/1999/02/22-rdf-syntax-ns#"
   xmlns:cc="http://creativecommons.org/ns#"
   xmlns:dc="http://purl.org/dc/elements/1.1/"><defs
     id="defs6651"><linearGradient
       id="linearGradient1380"><stop
         style="stop-color:#fafafa;stop-opacity:1"
         offset="0"
         id="stop1376" /><stop
         style="stop-color:#d4d4d4;stop-opacity:1"
         offset="1"
         id="stop1378" /></linearGradient><linearGradient
       id="linearGradient10083"><stop
         style="stop-color:#ff8c82;stop-opacity:1"
         offset="0"
         id="stop10079" /><stop
         style="stop-color:#ed5353;stop-opacity:1"
         offset="0.49321771"
         id="stop10085" /><stop
         style="stop-color:#c6262e;stop-opacity:1"
         offset="0.51118386"
         id="stop10087" /><stop
         style="stop-color:#7a0000;stop-opacity:1"
         offset="1"
         id="stop10081" /></linearGradient><linearGradient
       id="linearGradient1308"><stop
         style="stop-color:#206b00;stop-opacity:1"
         offset="0"
         id="stop1304" /><stop
         style="stop-color:#002e99;stop-opacity:1"
         offset="1"
         id="stop1306" /></linearGradient><linearGradient
       id="linearGradient1241"><stop
         style="stop-color:#ffffff;stop-opacity:1;"
         offset="0"
         id="stop1237" /><stop
         style="stop-color:#ffffff;stop-opacity:0;"
         offset="1"
         id="stop1239" /></linearGradient><linearGradient
       id="linearGradient584"><stop
         style="stop-color:#9bdb4d;stop-opacity:1"
         offset="0"
         id="stop580" /><stop
         style="stop-color:#68b723;stop-opacity:1"
         offset="1"
         id="stop582" /></linearGradient><linearGradient
       id="linearGradient1201"><stop
         id="stop1193"
         style="stop-color:#ffffff;stop-opacity:1"
         offset="0" /><stop
         id="stop1195"
         style="stop-color:#ffffff;stop-opacity:0.23529412"
         offset="0.06781636" /><stop
         id="stop1197"
         style="stop-color:#ffffff;stop-opacity:0.15686275"
         offset="0.94694352" /><stop
         id="stop1199"
         style="stop-color:#ffffff;stop-opacity:0.39215687"
         offset="1" /></linearGradient><linearGradient
       id="linearGradient854"><stop
         style="stop-color:#64baff;stop-opacity:1"
         offset="0"
         id="stop850" /><stop
         style="stop-color:#3689e6;stop-opacity:1"
         offset="1"
         id="stop852" /></linearGradient><linearGradient
       id="linearGradient3688-166-749"><stop
         id="stop2883"
         style="stop-color:#181818;stop-opacity:1"
         offset="0" /><stop
         id="stop2885"
         style="stop-color:#181818;stop-opacity:0"
         offset="1" /></linearGradient><linearGradient
       id="linearGradient3702-501-757"><stop
         id="stop2895"
         style="stop-color:#181818;stop-opacity:0"
         offset="0" /><stop
         id="stop2897"
         style="stop-color:#181818;stop-opacity:1"
         offset="0.5" /><stop
         id="stop2899"
         style="stop-color:#181818;stop-opacity:0"
         offset="1" /></linearGradient><radialGradient
       cx="4.9929786"
       cy="43.5"
       r="2.5"
       fx="4.9929786"
       fy="43.5"
       id="radialGradient3013-6"
       xlink:href="#linearGradient3688-166-749"
       gradientUnits="userSpaceOnUse"
       gradientTransform="matrix(2.003784,0,0,0.89999994,29.98813,4.8500025)" /><radialGradient
       cx="4.9929786"
       cy="43.5"
       r="2.5"
       fx="4.9929786"
       fy="43.5"
       id="radialGradient3015-1"
       xlink:href="#linearGradient3688-166-749"
       gradientUnits="userSpaceOnUse"
       gradientTransform="matrix(2.003784,0,0,0.89999994,-18.01187,-83.149997)" /><linearGradient
       xlink:href="#linearGradient854"
       id="linearGradient856-2"
       x1="23.528315"
       y1="6.08318"
       x2="23.528315"
       y2="44.23307"
       gradientUnits="userSpaceOnUse" /><linearGradient
       x1="38.999996"
       y1="5.9999938"
       x2="38.999996"
       y2="41.945408"
       id="linearGradient3058-5"
       xlink:href="#linearGradient1201"
       gradientUnits="userSpaceOnUse"
       gradientTransform="translate(4e-6,1.0000062)" /><linearGradient
       xlink:href="#linearGradient3702-501-757"
       id="linearGradient1191"
       gradientUnits="userSpaceOnUse"
       x1="25.058096"
       y1="47.027729"
       x2="25.058096"
       y2="39.999443"
       gradientTransform="matrix(1.1428571,0,0,0.6428571,-3.428569,16.035716)" /><linearGradient
       xlink:href="#linearGradient584"
       id="linearGradient530"
       gradientUnits="userSpaceOnUse"
       x1="23.528315"
       y1="6.08318"
       x2="23.528315"
       y2="44.23307" /><linearGradient
       xlink:href="#linearGradient1241"
       id="linearGradient1249"
       gradientUnits="userSpaceOnUse"
       x1="5.6647954"
       y1="6.9542251"
       x2="43.467026"
       y2="44.459969" /><linearGradient
       xlink:href="#linearGradient1308"
       id="linearGradient1310"
       x1="5.8168101"
       y1="7.1173258"
       x2="43.65715"
       y2="44.957668"
       gradientUnits="userSpaceOnUse" /><linearGradient
       xlink:href="#linearGradient1241"
       id="linearGradient2074"
       gradientUnits="userSpaceOnUse"
       x1="6.8372035"
       y1="7.9786997"
       x2="41.175953"
       y2="42.358139" /><linearGradient
       xlink:href="#linearGradient584"
       id="linearGradient530-6"
       gradientUnits="userSpaceOnUse"
       x1="23.528315"
       y1="6.08318"
       x2="23.528315"
       y2="44.23307" /><linearGradient
       xlink:href="#linearGradient13193"
       id="linearGradient26179"
       gradientUnits="userSpaceOnUse"
       x1="9"
       y1="22"
       x2="9"
       y2="2"
       gradientTransform="translate(28,26)" /><linearGradient
       id="linearGradient13193"><stop
         style="stop-color:#000000;stop-opacity:1"
         offset="0"
         id="stop13195" /><stop
         style="stop-color:#333333;stop-opacity:1"
         offset="1"
         id="stop13197" /></linearGradient><linearGradient
       xlink:href="#linearGradient854"
       id="linearGradient899"
       x1="31.781376"
       y1="4.9266648"
       x2="31.781376"
       y2="59.148476"
       gradientUnits="userSpaceOnUse"
       gradientTransform="matrix(0.70909091,0,0,0.70909091,1.3091056,2.3090857)" /><linearGradient
       xlink:href="#linearGradient1308"
       id="linearGradient1867"
       gradientUnits="userSpaceOnUse"
       x1="9.5805931"
       y1="10.073647"
       x2="40.263229"
       y2="40.756283" /><linearGradient
       xlink:href="#linearGradient1308"
       id="linearGradient1"
       gradientUnits="userSpaceOnUse"
       x1="9.5805931"
       y1="10.073647"
       x2="40.263229"
       y2="40.756283" /><linearGradient
       xlink:href="#linearGradient1308"
       id="linearGradient2"
       gradientUnits="userSpaceOnUse"
       x1="9.5805931"
       y1="10.073647"
       x2="40.263229"
       y2="40.756283"
       gradientTransform="translate(0,-1)" /></defs><metadata
     id="metadata6654"><rdf:RDF><cc:Work
         rdf:about=""><dc:format>image/svg+xml</dc:format><dc:type
           rdf:resource="http://purl.org/dc/dcmitype/StillImage" /></cc:Work></rdf:RDF></metadata><rect
     style="opacity:0.6;fill:url(#radialGradient3013-6);fill-opacity:1;stroke:none;stroke-width:0.862764"
     id="rect2801-3-7"
     y="41.75"
     x="40"
     height="4.4999995"
     width="5" /><rect
     style="opacity:0.6;fill:url(#radialGradient3015-1);fill-opacity:1;stroke:none;stroke-width:0.862764"
     id="rect3696-6-3"
     transform="scale(-1)"
     y="-46.25"
     x="-8"
     height="4.4999995"
     width="5" /><rect
     style="opacity:0.6;fill:url(#linearGradient1191);fill-opacity:1;stroke:none;stroke-width:0.862764"
     id="rect3700-4-6"
     y="41.75"
     x="8"
     height="4.5"
     width="32" /><rect
     style="color:#000000;display:inline;overflow:visible;visibility:visible;opacity:1;fill:url(#linearGradient856-2);fill-opacity:1;fill-rule:nonzero;stroke:none;stroke-width:1;stroke-opacity:0.5;marker:none;enable-background:accumulate"
     id="rect5505-21-1"
     y="5.4999952"
     x="4.5000153"
     ry="4"
     rx="4"
     height="39"
     width="39" /><path
     id="rect532"
     style="fill:url(#linearGradient530);stroke-width:1;stroke-opacity:0.5;-inkscape-stroke:none;stop-color:#000000;font-variation-settings:normal;opacity:1;vector-effect:none;fill-opacity:1;stroke:none;stroke-linecap:butt;stroke-linejoin:miter;stroke-miterlimit:4;stroke-dasharray:none;stroke-dashoffset:0;marker:none;stop-opacity:1"
     d="M 8.5 5.5 C 6.2840022 5.5 4.5 7.2840022 4.5 9.5 L 4.5 15 L 14 15 L 14 5.5 L 8.5 5.5 z " /><path
     id="rect532-3"
     style="fill:url(#linearGradient530);stroke-width:1;stroke-opacity:0.5;-inkscape-stroke:none;stop-color:#000000;opacity:0.8;font-variation-settings:normal;vector-effect:none;fill-opacity:1;stroke:none;stroke-linecap:butt;stroke-linejoin:miter;stroke-miterlimit:4;stroke-dasharray:none;stroke-dashoffset:0;marker:none;stop-opacity:1"
     d="M 14 5.5 L 14 15 L 24 15 L 24 5.5 L 14 5.5 z " /><path
     id="rect532-6"
     style="fill:url(#linearGradient530);stroke-width:1;stroke-opacity:0.5;-inkscape-stroke:none;stop-color:#000000;opacity:0.6;font-variation-settings:normal;vector-effect:none;fill-opacity:1;stroke:none;stroke-linecap:butt;stroke-linejoin:miter;stroke-miterlimit:4;stroke-dasharray:none;stroke-dashoffset:0;marker:none;stop-opacity:1"
     d="M 24 5.5 L 24 15 L 34 15 L 34 5.5 L 24 5.5 z " /><path
     id="rect532-3-7"
     style="fill:url(#linearGradient530);stroke-width:1;stroke-opacity:0.5;-inkscape-stroke:none;stop-color:#000000;opacity:0.4;font-variation-settings:normal;vector-effect:none;fill-opacity:1;stroke:none;stroke-linecap:butt;stroke-linejoin:miter;stroke-miterlimit:4;stroke-dasharray:none;stroke-dashoffset:0;marker:none;stop-opacity:1"
     d="M 34 5.5 L 34 15 L 43.5 15 L 43.5 9.5 C 43.5 7.2840022 41.715998 5.5 39.5 5.5 L 34 5.5 z " /><path
     id="rect532-5"
     style="fill:url(#linearGradient530);stroke-width:1;stroke-opacity:0.5;-inkscape-stroke:none;stop-color:#000000;opacity:0.8;font-variation-settings:normal;vector-effect:none;fill-opacity:1;stroke:none;stroke-linecap:butt;stroke-linejoin:miter;stroke-miterlimit:4;stroke-dasharray:none;stroke-dashoffset:0;marker:none;stop-opacity:1"
     d="M 4.5 15 L 4.5 25 L 14 25 L 14 15 L 4.5 15 z " /><rect
     style="fill:url(#linearGradient530);stroke-width:1;stroke-opacity:0.5;-inkscape-stroke:none;stop-color:#000000;opacity:0.6;font-variation-settings:normal;vector-effect:none;fill-opacity:1;stroke:none;stroke-linecap:butt;stroke-linejoin:miter;stroke-miterlimit:4;stroke-dasharray:none;stroke-dashoffset:0;marker:none;stop-opacity:1"
     id="rect532-3-3"
     width="10"
     height="10"
     x="14.000015"
     y="14.999995"
     rx="0"
     ry="0" /><rect
     style="fill:url(#linearGradient530);stroke-width:1;stroke-opacity:0.5;-inkscape-stroke:none;stop-color:#000000;opacity:0.4;font-variation-settings:normal;vector-effect:none;fill-opacity:1;stroke:none;stroke-linecap:butt;stroke-linejoin:miter;stroke-miterlimit:4;stroke-dasharray:none;stroke-dashoffset:0;marker:none;stop-opacity:1"
     id="rect532-6-5"
     width="10"
     height="10"
     x="24.000015"
     y="14.999995"
     rx="0"
     ry="0" /><path
     id="rect532-3-7-6"
     style="fill:url(#linearGradient530);stroke-width:1;stroke-opacity:0.5;-inkscape-stroke:none;stop-color:#000000;opacity:0.2;font-variation-settings:normal;vector-effect:none;fill-opacity:1;stroke:none;stroke-linecap:butt;stroke-linejoin:miter;stroke-miterlimit:4;stroke-dasharray:none;stroke-dashoffset:0;marker:none;stop-opacity:1"
     d="M 34 15 L 34 25 L 43.5 25 L 43.5 15 L 34 15 z " /><path
     id="rect532-5-2"
     style="fill:url(#linearGradient530);stroke-width:1;stroke-opacity:0.5;-inkscape-stroke:none;stop-color:#000000;opacity:0.6;font-variation-settings:normal;vector-effect:none;fill-opacity:1;stroke:none;stroke-linecap:butt;stroke-linejoin:miter;stroke-miterlimit:4;stroke-dasharray:none;stroke-dashoffset:0;marker:none;stop-opacity:1"
     d="M 4.5 25 L 4.5 35 L 14 35 L 14 25 L 4.5 25 z " /><rect
     style="fill:url(#linearGradient530);stroke-width:1;stroke-opacity:0.5;-inkscape-stroke:none;stop-color:#000000;opacity:0.4;font-variation-settings:normal;vector-effect:none;fill-opacity:1;stroke:none;stroke-linecap:butt;stroke-linejoin:miter;stroke-miterlimit:4;stroke-dasharray:none;stroke-dashoffset:0;marker:none;stop-opacity:1"
     id="rect532-3-3-9"
     width="10"
     height="10"
     x="14.000015"
     y="24.999994"
     rx="0"
     ry="0" /><rect
     style="fill:url(#linearGradient530);stroke-width:1;stroke-opacity:0.5;-inkscape-stroke:none;stop-color:#000000;opacity:0.2;font-variation-settings:normal;vector-effect:none;fill-opacity:1;stroke:none;stroke-linecap:butt;stroke-linejoin:miter;stroke-miterlimit:4;stroke-dasharray:none;stroke-dashoffset:0;marker:none;stop-opacity:1"
     id="rect532-6-5-1"
     width="10"
     height="10"
     x="24.000015"
     y="24.999994"
     rx="0"
     ry="0" /><path
     id="rect532-5-2-7"
     style="fill:url(#linearGradient530);stroke-width:1;stroke-opacity:0.5;-inkscape-stroke:none;stop-color:#000000;opacity:0.4;font-variation-settings:normal;vector-effect:none;fill-opacity:1;stroke:none;stroke-linecap:butt;stroke-linejoin:miter;stroke-miterlimit:4;stroke-dasharray:none;stroke-dashoffset:0;marker:none;stop-opacity:1"
     d="M 4.5 35 L 4.5 40.5 C 4.5 42.715998 6.2840022 44.5 8.5 44.5 L 14 44.5 L 14 35 L 4.5 35 z " /><path
     id="rect532-3-3-9-0"
     style="fill:url(#linearGradient530);stroke-width:1;stroke-opacity:0.5;-inkscape-stroke:none;stop-color:#000000;opacity:0.2;font-variation-settings:normal;vector-effect:none;fill-opacity:1;stroke:none;stroke-linecap:butt;stroke-linejoin:miter;stroke-miterlimit:4;stroke-dasharray:none;stroke-dashoffset:0;marker:none;stop-opacity:1"
     d="M 14 35 L 14 44.5 L 24 44.5 L 24 35 L 14 35 z " /><rect
     style="opacity:0.35;fill:none;stroke:url(#linearGradient3058-5);stroke-width:1;stroke-linecap:round;stroke-linejoin:round;stroke-miterlimit:4;stroke-dasharray:none;stroke-dashoffset:0;stroke-opacity:1"
     id="rect6741-2"
     y="6.4999952"
     x="5.5000153"
     ry="3"
     rx="3"
     height="37"
     width="37" /><rect
     style="color:#000000;display:inline;overflow:visible;visibility:visible;fill:none;fill-opacity:1;fill-rule:nonzero;stroke:url(#linearGradient1310);stroke-width:1;stroke-opacity:0.5;marker:none;enable-background:accumulate"
     id="rect5505-21-1-1"
     y="5.4999952"
     x="4.5000153"
     ry="4"
     rx="4"
     height="39"
     width="39" /><path
     id="path918-0-6"
     style="font-variation-settings:normal;opacity:0.07;vector-effect:none;fill:url(#linearGradient1);fill-opacity:1;stroke:none;stroke-width:1;stroke-linecap:butt;stroke-linejoin:miter;stroke-miterlimit:4;stroke-dasharray:none;stroke-dashoffset:0;stroke-opacity:0.5;-inkscape-stroke:none;marker:none;stop-color:#000000"
     d="M 24 6.3574219 L 23.019531 9.4921875 L 21.699219 15.996094 C 20.424601 16.28004 19.203703 16.830543 18.144531 17.59375 C 16.089419 16.38829 14.03402 15.183306 11.978516 13.978516 C 13.183306 16.034019 14.388291 18.089419 15.59375 20.144531 C 14.832029 21.204431 14.27855 22.424006 13.996094 23.699219 C 11.610277 24.227844 9.1806744 24.585632 6.8242188 25.228516 L 4.5 25.955078 L 4.5 26.046875 C 6.3178028 26.643075 8.1488616 27.191184 10.041016 27.498047 L 13.996094 28.300781 C 14.278974 29.575788 14.830997 30.796031 15.59375 31.855469 C 14.38829 33.910581 13.183306 35.96598 11.978516 38.021484 C 14.034019 36.816694 16.089419 35.611709 18.144531 34.40625 C 19.201432 35.173026 20.425063 35.71934 21.699219 36.003906 C 22.227844 38.389723 22.585632 40.819326 23.228516 43.175781 L 23.642578 44.5 L 24.367188 44.5 C 24.834213 43.0098 25.247356 41.504777 25.498047 39.958984 L 26.300781 36.003906 C 27.57442 35.718587 28.799271 35.174237 29.855469 34.40625 C 31.910581 35.61171 33.96598 36.816694 36.021484 38.021484 C 34.816694 35.965981 33.611709 33.910581 32.40625 31.855469 C 33.172395 30.798344 33.720512 29.57524 34.003906 28.300781 C 36.389678 27.772012 38.819492 27.414901 41.175781 26.771484 L 43.5 26.044922 L 43.5 25.955078 C 41.682263 25.357867 39.851469 24.808463 37.958984 24.501953 L 34.011719 23.701172 C 33.728583 22.423064 33.178041 21.197969 32.412109 20.136719 C 33.61437 18.085546 34.816082 16.034043 36.017578 13.982422 C 33.965957 15.183918 31.914455 16.385631 29.863281 17.587891 C 28.801266 16.823516 27.577566 16.269861 26.298828 15.988281 C 25.770568 13.60515 25.41451 11.17784 24.771484 8.8242188 L 24 6.3574219 z M 24.369141 19.921875 C 27.542102 20.036079 30.277198 22.99688 30.072266 26.175781 C 30.039676 29.082644 27.649052 31.72794 24.753906 32.021484 C 21.786429 32.468241 18.71905 30.345425 18.099609 27.408203 C 17.356237 24.606449 18.982727 21.441801 21.681641 20.390625 C 22.523408 20.027812 23.457108 19.90411 24.369141 19.921875 z " /><path
     id="path918-0"
     style="font-variation-settings:normal;vector-effect:none;fill:url(#linearGradient1867);fill-opacity:1;stroke:none;stroke-width:1;stroke-linecap:butt;stroke-linejoin:miter;stroke-miterlimit:4;stroke-dasharray:none;stroke-dashoffset:0;stroke-opacity:0.5;-inkscape-stroke:none;marker:none;stop-color:#000000;opacity:0.15;stop-opacity:1"
     d="m 24.000015,9.691 -1.44865,7.135226 a 9.296418,9.296418 0 0 0 -4.355647,1.956924 l -3.413885,-2.001241 2.001243,3.413885 a 9.296418,9.296418 0 0 0 -1.956925,4.355645 l -7.1352272,1.448651 7.1352272,1.448651 a 9.296418,9.296418 0 0 0 1.956925,4.355646 l -2.001243,3.413885 3.413885,-2.001244 a 9.296418,9.296418 0 0 0 4.355647,1.956925 l 1.44865,7.135228 1.44865,-7.135228 a 9.296418,9.296418 0 0 0 4.355647,-1.956925 l 3.413885,2.001244 -2.001244,-3.413885 a 9.296418,9.296418 0 0 0 1.956925,-4.355646 l 7.135228,-1.448651 -7.126918,-1.447266 a 9.296418,9.296418 0 0 0 -1.959694,-4.365341 l 1.995703,-3.405574 -3.405575,1.995702 a 9.296418,9.296418 0 0 0 -4.365341,-1.959695 z m 0,9.21818 a 7.0909091,7.0909091 0 0 1 7.090908,7.09091 7.0909091,7.0909091 0 0 1 -7.090908,7.090909 7.0909091,7.0909091 0 0 1 -7.090909,-7.090909 7.0909091,7.0909091 0 0 1 7.090909,-7.09091 z" /><path
     id="path918"
     style="font-variation-settings:normal;vector-effect:none;fill:#fafafa;fill-opacity:1;stroke:none;stroke-width:1;stroke-linecap:butt;stroke-linejoin:miter;stroke-miterlimit:4;stroke-dasharray:none;stroke-dashoffset:0;stroke-opacity:0.5;-inkscape-stroke:none;marker:none;stop-color:#000000"
     d="m 24.000015,8.6909046 -1.44865,7.1352264 a 9.296418,9.296418 0 0 0 -4.355647,1.956924 l -3.413885,-2.001241 2.001243,3.413885 a 9.296418,9.296418 0 0 0 -1.956925,4.355645 l -7.1352272,1.448651 7.1352272,1.448651 a 9.296418,9.296418 0 0 0 1.956925,4.355646 l -2.001243,3.413885 3.413885,-2.001244 a 9.296418,9.296418 0 0 0 4.355647,1.956925 l 1.44865,7.135228 1.44865,-7.135228 a 9.296418,9.296418 0 0 0 4.355647,-1.956925 l 3.413885,2.001244 -2.001244,-3.413885 a 9.296418,9.296418 0 0 0 1.956925,-4.355646 l 7.135228,-1.448651 -7.126918,-1.447266 a 9.296418,9.296418 0 0 0 -1.959694,-4.365341 l 1.995703,-3.405574 -3.405575,1.995702 a 9.296418,9.296418 0 0 0 -4.365341,-1.959695 z m 0,9.2181804 a 7.0909091,7.0909091 0 0 1 7.090908,7.09091 7.0909091,7.0909091 0 0 1 -7.090908,7.090909 7.0909091,7.0909091 0 0 1 -7.090909,-7.090909 7.0909091,7.0909091 0 0 1 7.090909,-7.09091 z" /><path
     id="path918-0-2"
     style="font-variation-settings:normal;opacity:0.15;vector-effect:none;fill:url(#linearGradient2);fill-opacity:1;stroke:none;stroke-width:1;stroke-linecap:butt;stroke-linejoin:miter;stroke-miterlimit:4;stroke-dasharray:none;stroke-dashoffset:0;stroke-opacity:0.5;-inkscape-stroke:none;marker:none;stop-color:#000000"
     d="M 14.78125 15.78125 L 16.46875 18.660156 A 9.296418 9.296418 0 0 1 16.783203 18.195312 L 15.675781 16.304688 L 14.78125 15.78125 z M 33.21875 15.78125 L 32.326172 16.304688 L 31.222656 18.1875 A 9.296418 9.296418 0 0 1 31.537109 18.650391 L 33.21875 15.78125 z M 24 16.910156 A 7.0909091 7.0909091 0 0 0 16.908203 24 A 7.0909091 7.0909091 0 0 0 16.964844 24.5 A 7.0909091 7.0909091 0 0 1 24 17.910156 A 7.0909091 7.0909091 0 0 1 31.054688 24.330078 A 7.0909091 7.0909091 0 0 0 31.091797 24 A 7.0909091 7.0909091 0 0 0 24 16.910156 z M 10.152344 24.5 L 7.6914062 25 L 14.826172 26.449219 A 9.296418 9.296418 0 0 0 16.46875 30.339844 L 16.783203 29.804688 A 9.296418 9.296418 0 0 1 14.826172 25.449219 L 10.152344 24.5 z M 37.847656 24.5 L 33.173828 25.449219 A 9.296418 9.296418 0 0 1 31.216797 29.804688 L 31.53125 30.339844 A 9.296418 9.296418 0 0 0 33.173828 26.449219 L 40.308594 25 L 37.847656 24.5 z M 18.195312 31.216797 L 15.675781 32.695312 L 14.78125 34.21875 L 18.195312 32.216797 A 9.296418 9.296418 0 0 0 22.550781 34.173828 L 24 41.308594 L 25.449219 34.173828 A 9.296418 9.296418 0 0 0 29.804688 32.216797 L 33.21875 34.21875 L 32.324219 32.695312 L 29.804688 31.216797 A 9.296418 9.296418 0 0 1 25.449219 33.173828 L 24 40.308594 L 22.550781 33.173828 A 9.296418 9.296418 0 0 1 18.195312 31.216797 z " /></svg>
