<?xml version="1.0" encoding="UTF-8" standalone="no"?>
<svg
   version="1.1"
   id="svg4332"
   height="64px"
   width="64px"
   xml:space="preserve"
   xmlns:xlink="http://www.w3.org/1999/xlink"
   xmlns="http://www.w3.org/2000/svg"
   xmlns:svg="http://www.w3.org/2000/svg"
   xmlns:rdf="http://www.w3.org/1999/02/22-rdf-syntax-ns#"
   xmlns:cc="http://creativecommons.org/ns#"
   xmlns:dc="http://purl.org/dc/elements/1.1/"><defs
     id="defs4334"><linearGradient
       id="linearGradient7276"><stop
         style="stop-color:#206b00;stop-opacity:1"
         offset="0"
         id="stop7272" /><stop
         style="stop-color:#002e99;stop-opacity:1"
         offset="1"
         id="stop7274" /></linearGradient><linearGradient
       id="linearGradient7270"><stop
         style="stop-color:#206b00;stop-opacity:1"
         offset="0"
         id="stop7266" /><stop
         style="stop-color:#002e99;stop-opacity:1"
         offset="1"
         id="stop7268" /></linearGradient><linearGradient
       id="linearGradient7264"><stop
         style="stop-color:#206b00;stop-opacity:1"
         offset="0"
         id="stop7260" /><stop
         style="stop-color:#002e99;stop-opacity:1"
         offset="1"
         id="stop7262" /></linearGradient><linearGradient
       id="linearGradient2208"><stop
         style="stop-color:#d1ff82;stop-opacity:1"
         offset="0"
         id="stop2204" /><stop
         style="stop-color:#8cd5ff;stop-opacity:1"
         offset="1"
         id="stop2206" /></linearGradient><linearGradient
       id="linearGradient1223"><stop
         style="stop-color:#206b00;stop-opacity:1"
         offset="0"
         id="stop1219" /><stop
         style="stop-color:#002e99;stop-opacity:1"
         offset="1"
         id="stop1221" /></linearGradient><linearGradient
       id="linearGradient662"><stop
         style="stop-color:#fafafa;stop-opacity:1;"
         offset="0"
         id="stop658" /><stop
         style="stop-color:#fafafa;stop-opacity:0;"
         offset="1"
         id="stop660" /></linearGradient><linearGradient
       y2="42.091705"
       x2="23.99999"
       y1="5.9093657"
       x1="23.99999"
       gradientTransform="matrix(1.4324324,0,0,1.4362832,-2.3783747,-2.4707827)"
       gradientUnits="userSpaceOnUse"
       id="linearGradient3904"
       xlink:href="#linearGradient4270" /><linearGradient
       id="linearGradient4270"><stop
         id="stop4272"
         style="stop-color:#ffffff;stop-opacity:1"
         offset="0" /><stop
         id="stop4274"
         style="stop-color:#ffffff;stop-opacity:0.23529412"
         offset="0.0348749" /><stop
         id="stop4276"
         style="stop-color:#ffffff;stop-opacity:0.15686275"
         offset="0.96216321" /><stop
         id="stop4278"
         style="stop-color:#ffffff;stop-opacity:0.39215687"
         offset="1" /></linearGradient><linearGradient
       id="linearGradient3688-166-749-654"><stop
         offset="0"
         style="stop-color:#181818;stop-opacity:1"
         id="stop3088" /><stop
         offset="1"
         style="stop-color:#181818;stop-opacity:0"
         id="stop3090" /></linearGradient><linearGradient
       id="linearGradient3702-501-757-795"><stop
         offset="0"
         style="stop-color:#181818;stop-opacity:0"
         id="stop3100" /><stop
         offset="0.5"
         style="stop-color:#181818;stop-opacity:1"
         id="stop3102" /><stop
         offset="1"
         style="stop-color:#181818;stop-opacity:0"
         id="stop3104" /></linearGradient><radialGradient
       cx="4.9929786"
       cy="43.5"
       r="2.5"
       fx="4.9929786"
       fy="43.5"
       id="radialGradient3337-2-2"
       xlink:href="#linearGradient3688-166-749-654"
       gradientUnits="userSpaceOnUse"
       gradientTransform="matrix(2.4045407,0,0,0.99999998,41.985755,15.500001)" /><radialGradient
       cx="4.9929786"
       cy="43.5"
       r="2.5"
       fx="4.9929786"
       fy="43.5"
       id="radialGradient3339-1-4"
       xlink:href="#linearGradient3688-166-749-654"
       gradientUnits="userSpaceOnUse"
       gradientTransform="matrix(2.4045407,0,0,0.99999998,-22.014244,-102.5)" /><linearGradient
       x1="25.058096"
       y1="47.027729"
       x2="25.058096"
       y2="39.999443"
       id="linearGradient6394"
       xlink:href="#linearGradient3702-501-757-795"
       gradientUnits="userSpaceOnUse"
       gradientTransform="matrix(1.5714286,0,0,0.7142857,-5.7142853,27.928572)" /><linearGradient
       xlink:href="#linearGradient854"
       id="linearGradient899"
       x1="31.781376"
       y1="4.9266648"
       x2="31.781376"
       y2="59.148476"
       gradientUnits="userSpaceOnUse" /><linearGradient
       id="linearGradient1308"><stop
         style="stop-color:#206b00;stop-opacity:1"
         offset="0"
         id="stop1304" /><stop
         style="stop-color:#002e99;stop-opacity:1"
         offset="1"
         id="stop1306" /></linearGradient><linearGradient
       id="linearGradient584"><stop
         style="stop-color:#9bdb4d;stop-opacity:1"
         offset="0"
         id="stop580" /><stop
         style="stop-color:#68b723;stop-opacity:1"
         offset="1"
         id="stop582" /></linearGradient><linearGradient
       id="linearGradient854"><stop
         style="stop-color:#64baff;stop-opacity:1"
         offset="0"
         id="stop850" /><stop
         style="stop-color:#3689e6;stop-opacity:1"
         offset="1"
         id="stop852" /></linearGradient><linearGradient
       xlink:href="#linearGradient584"
       id="linearGradient449"
       gradientUnits="userSpaceOnUse"
       x1="23.528315"
       y1="6.08318"
       x2="23.528315"
       y2="44.23307"
       gradientTransform="matrix(1.4102564,0,0,1.4102564,-1.846154,-3.2564096)" /><linearGradient
       xlink:href="#linearGradient1308"
       id="linearGradient1202"
       gradientUnits="userSpaceOnUse"
       gradientTransform="translate(-66.628688,2.4442062)"
       x1="71.033745"
       y1="1.8683437"
       x2="126.65769"
       y2="57.49229" /><mask
       maskUnits="userSpaceOnUse"
       id="mask736"><rect
         width="55"
         height="55"
         rx="6"
         ry="6"
         x="4.5"
         y="4.5"
         id="rect738"
         style="color:#000000;font-variation-settings:normal;display:inline;overflow:visible;visibility:visible;vector-effect:none;fill:url(#linearGradient740);fill-opacity:1;fill-rule:nonzero;stroke:none;stroke-width:1;stroke-linecap:butt;stroke-linejoin:miter;stroke-miterlimit:4;stroke-dasharray:none;stroke-dashoffset:0;stroke-opacity:0.5;-inkscape-stroke:none;marker:none;enable-background:accumulate;stop-color:#000000" /></mask><linearGradient
       xlink:href="#linearGradient662"
       id="linearGradient740"
       gradientUnits="userSpaceOnUse"
       x1="14.837302"
       y1="15.404727"
       x2="56.470413"
       y2="57.037838" /><linearGradient
       xlink:href="#linearGradient7264"
       id="linearGradient1217"
       x1="9.5805931"
       y1="10.073647"
       x2="55.145584"
       y2="55.638638"
       gradientUnits="userSpaceOnUse" /><linearGradient
       xlink:href="#linearGradient7270"
       id="linearGradient1867"
       gradientUnits="userSpaceOnUse"
       x1="9.5805931"
       y1="10.073647"
       x2="55.145584"
       y2="55.638638" /><linearGradient
       xlink:href="#linearGradient2208"
       id="linearGradient2202"
       x1="30.486601"
       y1="13.922308"
       x2="61.237167"
       y2="44.672874"
       gradientUnits="userSpaceOnUse" /><linearGradient
       xlink:href="#linearGradient1223"
       id="linearGradient2319"
       gradientUnits="userSpaceOnUse"
       x1="24.141544"
       y1="30.769871"
       x2="70.296692"
       y2="30.769871"
       gradientTransform="matrix(1.1055461,1.1055461,-1.1055461,1.1055461,14.112606,-53.941175)" /><linearGradient
       xlink:href="#linearGradient7276"
       id="linearGradient2323"
       gradientUnits="userSpaceOnUse"
       x1="24.790976"
       y1="31.412302"
       x2="70.132751"
       y2="31.412302" /><linearGradient
       xlink:href="#linearGradient7264"
       id="linearGradient1064"
       gradientUnits="userSpaceOnUse"
       x1="9.5805931"
       y1="10.073647"
       x2="55.145584"
       y2="55.638638"
       gradientTransform="translate(0,-1)" /></defs><metadata
     id="metadata4337"><rdf:RDF><cc:Work
         rdf:about=""><dc:format>image/svg+xml</dc:format><dc:type
           rdf:resource="http://purl.org/dc/dcmitype/StillImage" /></cc:Work></rdf:RDF></metadata><g
     id="g866"><rect
       style="opacity:0.6;fill:url(#radialGradient3337-2-2);fill-opacity:1;stroke:none;stroke-width:1.06199"
       id="rect2801-5-5-7-9"
       y="56.5"
       x="54"
       height="5"
       width="6" /><rect
       style="opacity:0.6;fill:url(#radialGradient3339-1-4);fill-opacity:1;stroke:none;stroke-width:1.06199"
       id="rect3696-3-0-3-7"
       transform="scale(-1)"
       y="-61.5"
       x="-10"
       height="5"
       width="6" /><rect
       style="opacity:0.6;fill:url(#linearGradient6394);fill-opacity:1;stroke:none;stroke-width:1.06199"
       id="rect3700-5-6-8-4"
       y="56.5"
       x="10"
       height="5.0000005"
       width="44" /></g><rect
     width="55"
     height="55"
     rx="6"
     ry="6"
     x="4.5"
     y="4.5"
     id="rect5505-21-3-8-5-2-9"
     style="color:#000000;display:inline;overflow:visible;visibility:visible;fill:url(#linearGradient899);fill-opacity:1.0;fill-rule:nonzero;stroke:none;stroke-width:1;marker:none;enable-background:accumulate" /><rect
     width="55"
     height="55"
     rx="6"
     ry="6"
     x="4.5"
     y="4.5"
     id="rect5505-21-3-8-5-2-9-7"
     style="color:#000000;display:inline;overflow:visible;visibility:visible;fill:url(#linearGradient449);fill-opacity:1;fill-rule:nonzero;stroke:none;stroke-width:1;marker:none;enable-background:accumulate;font-variation-settings:normal;opacity:1;vector-effect:none;stroke-linecap:butt;stroke-linejoin:miter;stroke-miterlimit:4;stroke-dasharray:none;stroke-dashoffset:0;stroke-opacity:0.5;-inkscape-stroke:none;stop-color:#000000;stop-opacity:1"
     mask="url(#mask736)" /><path
     id="path918-0-2"
     style="font-variation-settings:normal;opacity:0.07;vector-effect:none;fill:url(#linearGradient1867);fill-opacity:1;stroke:none;stroke-width:1;stroke-linecap:butt;stroke-linejoin:miter;stroke-miterlimit:4;stroke-dasharray:none;stroke-dashoffset:0;stroke-opacity:0.5;-inkscape-stroke:none;marker:none;stop-color:#000000"
     d="m 31.019531,9.8007812 c -0.638021,3.1438798 -1.276041,6.2877608 -1.914062,9.4316408 -1.925567,0.396694 -3.766868,1.223802 -5.341797,2.40039 -2.521296,-1.478186 -5.042656,-2.956263 -7.564453,-4.433593 1.47733,2.521797 2.955407,5.043157 4.433593,7.564453 -1.174981,1.575715 -2.00535,3.41557 -2.40039,5.341797 -3.267731,0.69105 -6.562758,1.27598 -9.8133819,2.033535 C 7.5020163,32.426003 6.5849925,32.713001 5.6679688,33 c 1.863689,0.615567 3.7396761,1.183323 5.6808712,1.497573 2.294527,0.465653 4.589055,0.931306 6.883582,1.396958 0.396694,1.925567 1.223802,3.766868 2.40039,5.341797 -1.478186,2.521296 -2.956263,5.042656 -4.433593,7.564453 2.521797,-1.47733 5.043157,-2.955407 7.564453,-4.433593 1.575715,1.174981 3.41557,2.00535 5.341797,2.40039 0.69105,3.267731 1.27598,6.562758 2.033535,9.813382 0.286999,0.917024 0.573997,1.834047 0.860996,2.751071 0.615567,-1.863689 1.183323,-3.739676 1.497573,-5.680871 0.465653,-2.294527 0.931306,-4.589055 1.396958,-6.883582 1.925567,-0.396694 3.766868,-1.223802 5.341797,-2.40039 2.521296,1.478186 5.042656,2.956263 7.564453,4.433593 -1.47733,-2.521797 -2.955407,-5.043157 -4.433593,-7.564453 1.174981,-1.575715 2.00535,-3.41557 2.40039,-5.341797 3.267731,-0.69105 6.562758,-1.27598 9.813382,-2.033535 C 56.497984,33.573997 57.415007,33.286999 58.332031,33 56.46834,32.384446 54.592354,31.816682 52.651182,31.502316 50.360554,31.037352 48.069925,30.572387 45.779297,30.107422 45.384338,28.176245 44.554036,26.33115 43.375,24.751953 44.849956,22.235229 46.324793,19.718435 47.798828,17.201172 45.281565,18.675208 42.764771,20.150044 40.248047,21.625 38.668078,20.447541 36.824402,19.61404 34.892578,19.220703 34.202115,15.956896 33.61796,12.66574 32.860996,9.4190401 32.573997,8.5020163 32.286999,7.5849925 32,6.6679688 31.673177,7.7122396 31.346354,8.7565104 31.019531,9.8007812 Z m 1.414063,14.2109378 c 3.909881,0.127304 7.491037,3.104595 8.324599,6.927223 0.86639,3.546862 -0.690253,7.513746 -3.744456,9.516873 -3.102386,2.145351 -7.567811,2.012875 -10.509783,-0.360825 -2.849656,-2.126824 -4.13579,-6.043906 -3.175916,-9.459236 0.938784,-3.575685 4.278376,-6.373061 7.981375,-6.582799 0.374701,-0.02523 0.748255,-0.06845 1.124181,-0.04124 z" /><path
     id="path918-0"
     style="font-variation-settings:normal;vector-effect:none;fill:url(#linearGradient1217);fill-opacity:1;stroke:none;stroke-width:1;stroke-linecap:butt;stroke-linejoin:miter;stroke-miterlimit:4;stroke-dasharray:none;stroke-dashoffset:0;stroke-opacity:0.5;-inkscape-stroke:none;marker:none;stop-color:#000000;opacity:0.15"
     d="m 32.000001,10 -2.042969,10.0625 a 13.110333,13.110333 0 0 0 -6.142579,2.759765 L 19,20 21.822266,24.814453 A 13.110333,13.110333 0 0 0 19.0625,30.957031 L 9,33 19.0625,35.042968 a 13.110333,13.110333 0 0 0 2.759766,6.142578 L 19,46 23.814453,43.177734 A 13.110333,13.110333 0 0 0 29.957032,45.9375 L 32.000001,56 34.042968,45.9375 a 13.110333,13.110333 0 0 0 6.142579,-2.759766 L 45,46 42.177734,41.185546 A 13.110333,13.110333 0 0 0 44.9375,35.042968 L 55,33 44.949219,30.958984 a 13.110333,13.110333 0 0 0 -2.763672,-6.15625 L 45,20 40.197266,22.814453 a 13.110333,13.110333 0 0 0 -6.15625,-2.763672 z m 0,12.999999 A 10,10 0 0 1 41.999999,33 10,10 0 0 1 32.000001,43 10,10 0 0 1 22,33 10,10 0 0 1 32.000001,22.999999 Z" /><path
     id="path918"
     style="font-variation-settings:normal;opacity:1;vector-effect:none;fill:url(#linearGradient2202);fill-opacity:1;stroke:none;stroke-width:0.707893;stroke-linecap:butt;stroke-linejoin:miter;stroke-miterlimit:4;stroke-dasharray:none;stroke-dashoffset:0;stroke-opacity:0.5;-inkscape-stroke:none;marker:none;stop-color:#000000;stop-opacity:1"
     d="M 47.410313 14.949072 L 45.964109 22.072248 A 9.280717 9.280717 0 0 0 41.615819 24.025867 L 38.2077 22.028005 L 40.205563 25.436124 A 9.280717 9.280717 0 0 0 38.251943 29.784413 L 31.128767 31.230617 L 38.251943 32.676821 A 9.280717 9.280717 0 0 0 40.205563 37.025111 L 38.2077 40.43323 L 41.615819 38.435367 A 9.280717 9.280717 0 0 0 45.964109 40.388987 L 47.410313 47.512163 L 48.856516 40.388987 A 9.280717 9.280717 0 0 0 53.204806 38.435367 L 56.612925 40.43323 L 54.615062 37.025111 A 9.280717 9.280717 0 0 0 56.568682 32.676821 L 63.691858 31.230617 L 56.576978 29.785796 A 9.280717 9.280717 0 0 0 54.620593 25.427828 L 56.612925 22.028005 L 53.213102 24.020337 A 9.280717 9.280717 0 0 0 48.855134 22.063952 L 47.410313 14.949072 z M 47.410313 24.151684 A 7.0789329 7.0789329 0 0 1 54.489245 31.230617 A 7.0789329 7.0789329 0 0 1 47.410313 38.30955 A 7.0789329 7.0789329 0 0 1 40.33138 31.230617 A 7.0789329 7.0789329 0 0 1 47.410313 24.151684 z "
     transform="matrix(1.4126423,0,0,1.4126423,-34.973813,-12.117691)" /><path
     id="path918-0-3"
     style="font-variation-settings:normal;opacity:0.15;vector-effect:none;fill:url(#linearGradient1064);fill-opacity:1;stroke:none;stroke-width:1;stroke-linecap:butt;stroke-linejoin:miter;stroke-miterlimit:4;stroke-dasharray:none;stroke-dashoffset:0;stroke-opacity:0.5;-inkscape-stroke:none;marker:none;stop-color:#000000"
     d="M 19 19 L 21.507812 23.279297 A 13.110333 13.110333 0 0 1 21.822266 22.814453 L 19.892578 19.523438 L 19 19 z M 45 19 L 44.107422 19.523438 L 42.185547 22.802734 A 13.110333 13.110333 0 0 1 42.5 23.265625 L 45 19 z M 32 21 A 10 10 0 0 0 22 31 A 10 10 0 0 0 22.056641 31.5 A 10 10 0 0 1 32 22 A 10 10 0 0 1 41.972656 31.248047 A 10 10 0 0 0 42 31 A 10 10 0 0 0 32 21 z M 11.462891 31.5 L 9 32 L 19.0625 34.042969 A 13.110333 13.110333 0 0 0 21.507812 39.720703 L 21.822266 39.185547 A 13.110333 13.110333 0 0 1 19.0625 33.042969 L 11.462891 31.5 z M 52.537109 31.5 L 44.9375 33.042969 A 13.110333 13.110333 0 0 1 42.177734 39.185547 L 42.492188 39.720703 A 13.110333 13.110333 0 0 0 44.9375 34.042969 L 55 32 L 52.537109 31.5 z M 23.814453 41.177734 L 19.892578 43.476562 L 19 45 L 23.814453 42.177734 A 13.110333 13.110333 0 0 0 29.957031 44.9375 L 32 55 L 34.042969 44.9375 A 13.110333 13.110333 0 0 0 40.185547 42.177734 L 45 45 L 44.107422 43.476562 L 40.185547 41.177734 A 13.110333 13.110333 0 0 1 34.042969 43.9375 L 32 54 L 29.957031 43.9375 A 13.110333 13.110333 0 0 1 23.814453 41.177734 z " /><path
     id="path918-5"
     style="font-variation-settings:normal;vector-effect:none;fill:#fafafa;fill-opacity:1;stroke:none;stroke-width:1;stroke-linecap:butt;stroke-linejoin:miter;stroke-miterlimit:4;stroke-dasharray:none;stroke-dashoffset:0;stroke-opacity:0.5;-inkscape-stroke:none;marker:none;stop-color:#000000;opacity:0.5"
     d="M 32 9 L 29.957031 19.0625 A 13.110333 13.110333 0 0 0 23.814453 21.822266 L 19 19 L 19.892578 20.523438 L 23.814453 22.822266 A 13.110333 13.110333 0 0 1 29.957031 20.0625 L 32 10 L 34.041016 20.050781 A 13.110333 13.110333 0 0 1 40.197266 22.814453 L 44.107422 20.523438 L 45 19 L 40.197266 21.814453 A 13.110333 13.110333 0 0 0 34.041016 19.050781 L 32 9 z M 42.5 24.265625 L 42.185547 24.802734 A 13.110333 13.110333 0 0 1 44.949219 30.958984 L 52.537109 32.5 L 55 32 L 44.949219 29.958984 A 13.110333 13.110333 0 0 0 42.5 24.265625 z M 21.507812 24.279297 A 13.110333 13.110333 0 0 0 19.0625 29.957031 L 9 32 L 11.462891 32.5 L 19.0625 30.957031 A 13.110333 13.110333 0 0 1 21.822266 24.814453 L 21.507812 24.279297 z M 41.972656 32.251953 A 10 10 0 0 1 32 42 A 10 10 0 0 1 22.056641 32.5 A 10 10 0 0 0 22 33 A 10 10 0 0 0 32 43 A 10 10 0 0 0 42 33 A 10 10 0 0 0 41.972656 32.251953 z M 21.507812 40.720703 L 19 45 L 19.892578 44.476562 L 21.822266 41.185547 A 13.110333 13.110333 0 0 1 21.507812 40.720703 z M 42.492188 40.720703 A 13.110333 13.110333 0 0 1 42.177734 41.185547 L 44.107422 44.476562 L 45 45 L 42.492188 40.720703 z " /><path
     id="path918-18-2-6-7"
     style="font-variation-settings:normal;opacity:0.15;vector-effect:none;fill:url(#linearGradient2319);fill-opacity:1;stroke:none;stroke-width:1;stroke-linecap:butt;stroke-linejoin:miter;stroke-miterlimit:4;stroke-dasharray:none;stroke-dashoffset:0;stroke-opacity:0.5;-inkscape-stroke:none;marker:none;stop-color:#000000"
     d="m 49.418825,14.185944 c -7.04999,5.027535 -14.100183,10.054787 -21.150047,15.082499 -5.042857,7.10126 -10.145684,14.167009 -15.150662,21.290754 -0.414171,0.854953 -0.828342,1.709905 -1.242514,2.564858 1.947049,-0.812449 3.714827,-1.927183 5.378785,-3.21698 6.158917,-4.3921 12.318036,-8.783917 18.476827,-13.176196 5.042857,-7.101259 10.145685,-14.167009 15.150664,-21.290753 0.41417,-0.854952 0.828341,-1.709907 1.242512,-2.564859 -0.901854,0.436892 -1.80371,0.873784 -2.705565,1.310677 z" /><path
     style="font-variation-settings:normal;vector-effect:none;fill:url(#linearGradient2323);fill-opacity:1;stroke:none;stroke-width:0.63959954;stroke-linecap:butt;stroke-linejoin:miter;stroke-miterlimit:4;stroke-dasharray:none;stroke-dashoffset:0;stroke-opacity:0.5;-inkscape-stroke:none;marker:none;stop-color:#000000;opacity:0.3;stop-opacity:1"
     id="path918-18-2-6"
     d="m 47.410313,14.949072 2.726149,16.281546 -2.72615,16.281545 -2.726148,-16.281546 z"
     transform="matrix(1.1055461,1.1055461,-1.1055461,1.1055461,14.112606,-53.941175)" /><path
     style="font-variation-settings:normal;vector-effect:none;fill:#ffffff;fill-opacity:1;stroke:none;stroke-width:0.639599;stroke-linecap:butt;stroke-linejoin:miter;stroke-miterlimit:4;stroke-dasharray:none;stroke-dashoffset:0;stroke-opacity:0.5;-inkscape-stroke:none;marker:none;stop-color:#000000"
     id="path918-18-2"
     d="m 47.410313,14.949072 2.726149,16.281546 -2.72615,16.281545 -2.726148,-16.281546 z"
     transform="matrix(1.1055461,1.1055461,-1.1055461,1.1055461,14.112606,-54.941173)" /><path
     id="path918-18-2-8"
     style="font-variation-settings:normal;vector-effect:none;fill:#b31619;fill-opacity:1;stroke:none;stroke-width:0.999999;stroke-linecap:butt;stroke-linejoin:miter;stroke-miterlimit:4;stroke-dasharray:none;stroke-dashoffset:0;stroke-opacity:0.5;-inkscape-stroke:none;marker:none;stop-color:#000000"
     d="M 35.013498,35.013496 49.999465,14.000547 28.986517,28.986515 Z" /><path
     id="path918-18-2-8-9"
     style="font-variation-settings:normal;vector-effect:none;fill:#ed5353;fill-opacity:1;stroke:none;stroke-width:0.999999;stroke-linecap:butt;stroke-linejoin:miter;stroke-miterlimit:4;stroke-dasharray:none;stroke-dashoffset:0;stroke-opacity:0.5;-inkscape-stroke:none;marker:none;stop-color:#000000"
     d="M 32.000008,32.000006 49.999465,14.000547 28.986517,28.986515 Z" /><path
     id="path918-18-2-8-9-3"
     style="font-variation-settings:normal;vector-effect:none;fill:#c5e4cd;fill-opacity:1;stroke:none;stroke-width:0.999999;stroke-linecap:butt;stroke-linejoin:miter;stroke-miterlimit:4;stroke-dasharray:none;stroke-dashoffset:0;stroke-opacity:0.5;-inkscape-stroke:none;marker:none;stop-color:#000000"
     d="M 32.000009,32.000004 14.000551,49.999463 35.013499,35.013495 Z" /><rect
     style="color:#000000;display:inline;overflow:visible;visibility:visible;opacity:1;fill:none;stroke:url(#linearGradient1202);stroke-width:1;stroke-linecap:butt;stroke-linejoin:miter;stroke-miterlimit:4;stroke-dasharray:none;stroke-dashoffset:0;stroke-opacity:0.5;marker:none;enable-background:accumulate;font-variation-settings:normal;vector-effect:none;fill-opacity:1;-inkscape-stroke:none;stop-color:#000000;stop-opacity:1"
     id="rect5505-21-9"
     y="4.5"
     x="4.5"
     ry="6"
     rx="6"
     height="55"
     width="55" /><rect
     style="opacity:0.35;fill:none;stroke:url(#linearGradient3904);stroke-width:1;stroke-linecap:round;stroke-linejoin:round;stroke-miterlimit:4;stroke-dasharray:none;stroke-dashoffset:0;stroke-opacity:1"
     id="rect6741"
     y="5.428761"
     x="5.5"
     ry="5"
     rx="5"
     height="53.142479"
     width="53" /></svg>
